# xmcd CD database file
#
# Track frame offsets:
#	150
#	22278
#	40480
#	57913
#	82676
#	99511
#	123274
#	145560
#	164539
#	184861
#	202248
#	223186
#	242425
#	257399
#	280627
#	301280
#	328406
#
# Disc length: 4665 seconds
#
# Revision: 0
# Processed by: cddbd v1.4PL0 Copyright (c) Steve Scherf et al.
# Submitted via: CDex 1.50Beta7
#
DISCID=f4123711
DTITLE=jazz fm - The very Best of (Vol 2) CD 2
DYEAR=2002
DGENRE=Jazz
TTITLE0=Aretha Franklin feat. Micheal McDonald - Ever changin' Times
TTITLE1=Kashif - Brooklyn Breezes
TTITLE2=Donna Gardier - How sweet it is (to be loved by you)
TTITLE3=Brian Simpson - Closer Still
TTITLE4=SWV - Right here (Human Nature Radio Mix)
TTITLE5=Kim Waters - Secrets told
TTITLE6=The Isley Brothers - Between the Stars
TTITLE7=Fourplay - Rollin'
TTITLE8=Toni Braxton - Breathe again
TTITLE9=Steve Oliver - High Noon
TTITLE10=Grover Washington, Jnr. feat. Jean Carne - The Look of Love
TTITLE11=Duncan Millar - Dream your Dream
TTITLE12=Mica Paris and Will Downing - Where is the Love
TTITLE13=Frank McComb - Future Love
TTITLE14=Joe McBride - One Sunday Afternoon
TTITLE15=Soul 2 Soul - Keep on Movin'
TTITLE16=Paul Hardcastle - Rainforest
EXTD=YEAR: 2002
EXTT0=
EXTT1=
EXTT2=
EXTT3=
EXTT4=
EXTT5=
EXTT6=
EXTT7=
EXTT8=
EXTT9=
EXTT10=
EXTT11=
EXTT12=
EXTT13=
EXTT14=
EXTT15=
EXTT16=
PLAYORDER=
